<?xml version="1.0" encoding="utf-8"?>
<!-- Generator: Adobe Illustrator 16.0.4, SVG Export Plug-In . SVG Version: 6.00 Build 0)  -->
<!DOCTYPE svg PUBLIC "-//W3C//DTD SVG 1.1//EN" "http://www.w3.org/Graphics/SVG/1.1/DTD/svg11.dtd">
<svg version="1.1" id="Layer_1" xmlns="http://www.w3.org/2000/svg" xmlns:xlink="http://www.w3.org/1999/xlink" x="0px" y="0px"
	 width="73px" height="140px" viewBox="0 0 73 140" enable-background="new 0 0 73 140" xml:space="preserve">
<g>
	<g>
		<path fill="#231F20" d="M36.499,2.792c-17.996,0-32.617,14.625-32.617,32.619c0,17.996,14.621,32.559,32.617,32.559
			s32.619-14.562,32.619-32.559C69.118,17.417,54.495,2.792,36.499,2.792L36.499,2.792z"/>
		<g>
			<path fill="#FFFFFF" d="M19.425,46.954V29.47c0-0.793,0.238-1.531,0.709-2.219c0.471-0.689,1.117-1.289,1.932-1.799
				s1.779-0.91,2.889-1.205s2.305-0.439,3.578-0.439c0.879,0,1.713,0.068,2.506,0.209c0.793,0.143,1.527,0.338,2.207,0.582
				c0.686,0.252,1.301,0.551,1.85,0.902c0.547,0.35,1.014,0.736,1.396,1.156c0.381-0.42,0.848-0.807,1.406-1.156
				c0.553-0.352,1.176-0.65,1.863-0.902c0.689-0.244,1.432-0.439,2.232-0.582c0.795-0.141,1.625-0.209,2.494-0.209
				c1.273,0,2.463,0.145,3.566,0.439c1.105,0.295,2.064,0.695,2.881,1.205c0.814,0.51,1.461,1.109,1.932,1.799
				c0.471,0.688,0.707,1.426,0.707,2.219v17.484h-2.334V45.29h-0.057c0-0.393-0.164-0.791-0.498-1.186
				c-0.332-0.395-0.795-0.75-1.396-1.064c-0.6-0.309-1.312-0.564-2.131-0.764c-0.826-0.195-1.725-0.295-2.709-0.295
				c-0.906,0-1.752,0.084-2.533,0.248c-0.787,0.164-1.477,0.387-2.064,0.658c-0.598,0.275-1.08,0.59-1.455,0.941
				c-0.379,0.348-0.615,0.707-0.719,1.078v2.047h-2.334v-1.777c-0.039-0.383-0.234-0.766-0.582-1.148
				c-0.352-0.383-0.826-0.727-1.428-1.033c-0.6-0.307-1.309-0.551-2.123-0.734c-0.814-0.188-1.711-0.279-2.678-0.279
				c-0.969,0-1.867,0.1-2.686,0.295c-0.826,0.199-1.531,0.455-2.129,0.764c-0.588,0.314-1.051,0.67-1.385,1.064
				c-0.332,0.395-0.496,0.793-0.496,1.186v1.664H19.425z M21.837,41.407c0.83-0.562,1.812-1.002,2.953-1.32
				c1.145-0.316,2.391-0.479,3.742-0.479c1.389,0,2.662,0.162,3.818,0.479c1.152,0.318,2.15,0.766,2.992,1.34V29.47
				c0-0.383-0.164-0.77-0.498-1.16c-0.332-0.387-0.799-0.738-1.408-1.047c-0.604-0.314-1.324-0.566-2.158-0.758
				c-0.838-0.191-1.752-0.287-2.746-0.287c-0.969,0-1.867,0.096-2.686,0.287c-0.826,0.191-1.531,0.443-2.129,0.758
				c-0.588,0.309-1.051,0.66-1.385,1.047c-0.332,0.391-0.496,0.777-0.496,1.16V41.407z M37.677,41.427
				c0.83-0.574,1.82-1.021,2.977-1.34c1.152-0.316,2.418-0.479,3.795-0.479c1.367,0,2.629,0.162,3.789,0.479
				c1.158,0.318,2.16,0.766,3.002,1.34V29.47c0-0.383-0.168-0.77-0.508-1.16c-0.336-0.387-0.807-0.738-1.416-1.047
				c-0.604-0.314-1.316-0.566-2.143-0.758c-0.818-0.191-1.719-0.287-2.686-0.287c-0.996,0-1.91,0.096-2.748,0.287
				c-0.834,0.191-1.553,0.443-2.158,0.758c-0.607,0.309-1.074,0.66-1.406,1.047c-0.334,0.391-0.498,0.777-0.498,1.16V41.427z"/>
		</g>
	</g>
	<polyline fill="none" stroke="#231F20" stroke-width="0.5" points="28.216,137.208 13.882,122.874 13.882,58.75 	"/>
</g>
</svg>
