<?xml version="1.0" encoding="utf-8"?>
<!-- Generator: Adobe Illustrator 16.0.4, SVG Export Plug-In . SVG Version: 6.00 Build 0)  -->
<!DOCTYPE svg PUBLIC "-//W3C//DTD SVG 1.1//EN" "http://www.w3.org/Graphics/SVG/1.1/DTD/svg11.dtd">
<svg version="1.1" id="Layer_1" xmlns="http://www.w3.org/2000/svg" xmlns:xlink="http://www.w3.org/1999/xlink" x="0px" y="0px"
	 width="73px" height="140px" viewBox="0 0 73 140" enable-background="new 0 0 73 140" xml:space="preserve">
<g>
	<g>
		<path fill="#231F20" d="M36.501,2.792c-17.996,0-32.619,14.624-32.619,32.618c0,17.996,14.623,32.56,32.619,32.56
			s32.617-14.563,32.617-32.56C69.118,17.416,54.497,2.792,36.501,2.792L36.501,2.792z"/>
		<g>
			<path fill="#FFFFFF" d="M50.392,25.792c0.381,0,0.74,0.073,1.08,0.221c0.336,0.147,0.629,0.347,0.883,0.598
				c0.252,0.254,0.451,0.548,0.598,0.884c0.148,0.34,0.221,0.703,0.221,1.098v16.545c0,0.379-0.072,0.74-0.221,1.074
				c-0.146,0.34-0.346,0.631-0.598,0.878c-0.254,0.247-0.547,0.442-0.883,0.59c-0.34,0.147-0.699,0.221-1.08,0.221H22.628
				c-0.381,0-0.744-0.073-1.088-0.221c-0.342-0.147-0.641-0.343-0.895-0.59c-0.252-0.247-0.449-0.538-0.598-0.878
				c-0.146-0.334-0.221-0.695-0.221-1.074V28.592c0-0.395,0.074-0.758,0.221-1.098c0.148-0.336,0.346-0.63,0.598-0.884
				c0.254-0.251,0.553-0.45,0.895-0.598c0.344-0.147,0.707-0.221,1.088-0.221h5.547v-0.129c0-0.396,0.072-0.759,0.221-1.095
				c0.146-0.34,0.346-0.633,0.6-0.884c0.25-0.255,0.549-0.453,0.891-0.602c0.344-0.147,0.709-0.221,1.088-0.221h11.164
				c0.379,0,0.74,0.073,1.08,0.221c0.334,0.148,0.627,0.347,0.875,0.602c0.244,0.251,0.439,0.544,0.588,0.884
				c0.146,0.336,0.221,0.699,0.221,1.095v0.129H50.392z M36.556,27.192c-1.168,0-2.262,0.221-3.287,0.663
				c-1.027,0.441-1.922,1.045-2.689,1.812c-0.77,0.77-1.377,1.666-1.826,2.69c-0.447,1.027-0.672,2.122-0.672,3.29
				c0,1.153,0.225,2.24,0.672,3.261c0.449,1.021,1.057,1.911,1.826,2.683c0.768,0.766,1.662,1.37,2.689,1.812
				c1.025,0.441,2.119,0.664,3.287,0.664s2.264-0.223,3.287-0.664c1.027-0.442,1.924-1.047,2.689-1.812
				c0.77-0.771,1.373-1.662,1.816-2.683s0.664-2.107,0.664-3.261c0-1.168-0.221-2.263-0.664-3.29
				c-0.443-1.024-1.047-1.921-1.816-2.69c-0.766-0.768-1.662-1.371-2.689-1.812C38.819,27.413,37.724,27.192,36.556,27.192z
				 M42.212,35.648c0,0.773-0.148,1.499-0.443,2.185c-0.295,0.678-0.699,1.278-1.215,1.794c-0.518,0.516-1.115,0.922-1.805,1.217
				s-1.42,0.441-2.193,0.441c-0.785,0-1.521-0.146-2.211-0.441c-0.688-0.295-1.289-0.701-1.807-1.217
				c-0.514-0.516-0.92-1.116-1.215-1.794c-0.295-0.686-0.441-1.411-0.441-2.185c0-0.785,0.146-1.521,0.441-2.211
				s0.701-1.289,1.215-1.806c0.518-0.517,1.119-0.921,1.807-1.216c0.689-0.295,1.426-0.442,2.211-0.442
				c0.773,0,1.504,0.147,2.193,0.442s1.287,0.699,1.805,1.216c0.516,0.517,0.92,1.116,1.215,1.806S42.212,34.863,42.212,35.648z"/>
		</g>
	</g>
	<polyline fill="none" stroke="#231F20" stroke-width="0.5" points="28.216,137.208 13.882,122.874 13.882,58.75 	"/>
</g>
</svg>
