<?xml version="1.0" encoding="utf-8"?>
<!-- Generator: Adobe Illustrator 16.0.4, SVG Export Plug-In . SVG Version: 6.00 Build 0)  -->
<!DOCTYPE svg PUBLIC "-//W3C//DTD SVG 1.1//EN" "http://www.w3.org/Graphics/SVG/1.1/DTD/svg11.dtd">
<svg version="1.1" id="Layer_1" xmlns="http://www.w3.org/2000/svg" xmlns:xlink="http://www.w3.org/1999/xlink" x="0px" y="0px"
	 width="73px" height="140px" viewBox="0 0 73 140" enable-background="new 0 0 73 140" xml:space="preserve">
<g>
	<g>
		<path fill="#231F20" d="M36.5,2.792c-17.996,0-32.618,14.623-32.618,32.617c0,17.996,14.622,32.561,32.618,32.561
			s32.618-14.564,32.618-32.561C69.118,17.415,54.496,2.792,36.5,2.792L36.5,2.792z"/>
		<g>
			<path fill="#FFFFFF" d="M22.41,36.665h22.574c0.248-0.064,0.401-0.049,0.455,0.049c0.061,0.1,0.08,0.234,0.065,0.396
				c-0.016,0.164-0.04,0.346-0.074,0.545s-0.025,0.361,0.024,0.494c1.074-0.295,1.959-0.361,2.658-0.197
				c0.703,0.162,1.253,0.465,1.648,0.9c0.396,0.439,0.648,0.98,0.757,1.623c0.104,0.645,0.095,1.309-0.039,1.992
				c-0.134,0.688-0.376,1.342-0.731,1.969c-0.354,0.629-0.793,1.15-1.323,1.561c-0.247,0.113-0.579,0.275-1.005,0.479
				c-0.415,0.209-0.817,0.377-1.198,0.512c-0.197,0.051-0.41,0.088-0.644,0.123c-0.231,0.035-0.47,0.064-0.717,0.1
				c-0.248,0.035-0.485,0.064-0.718,0.1c-0.233,0.033-0.437,0.082-0.619,0.148c-0.312,0.113-0.585,0.256-0.816,0.436
				c-0.234,0.168-0.437,0.355-0.62,0.555c-0.182,0.197-0.355,0.406-0.52,0.619c-0.163,0.211-0.337,0.41-0.519,0.594
				c-0.249,0.246-0.507,0.439-0.769,0.578c-0.262,0.145-0.51,0.279-0.742,0.396c-0.233,0.129-0.431,0.258-0.594,0.396
				c-0.164,0.143-0.283,0.336-0.348,0.584h-9.06c-0.133,0.064-0.246,0.072-0.346,0.023c-0.099-0.047-0.188-0.113-0.258-0.197
				c-0.079-0.084-0.149-0.18-0.213-0.281c-0.063-0.109-0.123-0.199-0.173-0.262c-0.184-0.186-0.392-0.357-0.634-0.521
				c-0.237-0.162-0.485-0.336-0.743-0.504c-0.252-0.18-0.515-0.357-0.791-0.547c-0.268-0.191-0.53-0.408-0.777-0.656
				c-0.609-0.609-1.11-1.312-1.5-2.104c-0.387-0.793-0.693-1.664-0.926-2.615c-0.232-0.945-0.406-1.969-0.521-3.068
				c-0.113-1.094-0.198-2.264-0.247-3.5V36.665z M30.158,20.229c0.133,0,0.213,0.113,0.247,0.348l0.124,0.643
				c0.015,0.213,0.023,0.436,0.023,0.668c0,0.412-0.059,0.852-0.172,1.312l-0.272,1.188c-0.05,0.133-0.074,0.256-0.074,0.373
				c0,0.395,0.237,1.221,0.718,2.475c0.431,1.074,0.644,1.98,0.644,2.721c0,0.248-0.09,0.629-0.272,1.141
				c-0.183,0.508-0.361,0.881-0.544,1.111l-0.62,0.941c-0.431,0.631-0.702,1.152-0.816,1.584c-0.099,0.334-0.248,0.506-0.445,0.52
				c-0.184,0-0.307-0.148-0.371-0.443l-0.174-1.461l0.198-0.619c0.431-1.039,0.644-1.945,0.644-2.725
				c0-0.676-0.073-1.221-0.223-1.631L28.4,27.358c-0.263-0.707-0.396-1.428-0.396-2.154c0-0.875,0.296-1.807,0.89-2.797l0.521-0.865
				c0.084-0.148,0.213-0.471,0.396-0.965C29.896,20.343,30.009,20.229,30.158,20.229z M35.231,19.091
				c0.148-0.014,0.282,0.182,0.397,0.594l0.197,0.668c0.064,0.197,0.098,0.471,0.098,0.818c0,0.48-0.098,1.064-0.295,1.756
				c-0.233,0.842-0.348,1.436-0.348,1.783c0,0.432,0.248,1.152,0.742,2.178c0.545,1.137,0.816,2.043,0.816,2.723
				c0,0.99-0.534,2.168-1.608,3.539c-0.658,0.826-1.029,1.428-1.113,1.809c-0.064,0.332-0.188,0.504-0.37,0.518
				c-0.249,0.018-0.398-0.158-0.446-0.518l-0.1-0.693c0-0.066,0-0.125,0-0.176c0-0.395,0.139-0.924,0.42-1.582l0.496-1.188
				c0.164-0.412,0.247-0.834,0.247-1.264c0-0.744-0.163-1.5-0.494-2.277l-0.495-1.188c-0.263-0.609-0.396-1.174-0.396-1.684
				c0-0.658,0.297-1.543,0.892-2.648l0.594-1.039c0.262-0.461,0.405-0.832,0.421-1.113C34.936,19.462,35.049,19.126,35.231,19.091z
				 M39.91,20.229c0.197,0,0.361,0.297,0.496,0.891l0.073,0.396l0.198,0.816c0.035,0.148,0.05,0.312,0.05,0.496
				c0,0.197-0.015,0.381-0.05,0.545l-0.174,0.916c-0.016,0.113-0.024,0.213-0.024,0.295c0,0.381,0.233,1.064,0.693,2.057
				c0.53,1.088,0.792,1.953,0.792,2.598c0,0.926-0.484,2.039-1.461,3.342c-0.827,1.123-1.303,1.896-1.435,2.328
				c-0.114,0.309-0.249,0.467-0.396,0.467c-0.233,0-0.347-0.213-0.347-0.643c0-0.014-0.025-0.246-0.074-0.691
				c0-0.066,0-0.135,0-0.199c0-0.297,0.183-0.766,0.545-1.41c0.644-1.236,0.965-2.287,0.965-3.145c0-0.51-0.162-1.123-0.495-1.83
				c-0.51-1.074-0.768-1.908-0.768-2.502s0.099-1.129,0.298-1.609l0.396-1.039c0.282-0.678,0.431-1.164,0.446-1.459
				C39.688,20.45,39.776,20.243,39.91,20.229z M48.152,39.364c-0.594,0-1.098,0.037-1.51,0.123
				c-0.411,0.084-0.807,0.123-1.188,0.123c-0.232,1.105-0.436,2.197-0.619,3.281c-0.183,1.082-0.46,2.115-0.841,3.105
				c0.579,0,1.147-0.105,1.708-0.311c0.559-0.203,1.078-0.477,1.559-0.814c0.48-0.34,0.887-0.73,1.229-1.178
				c0.337-0.445,0.564-0.916,0.678-1.41s0.1-0.994-0.05-1.5C48.969,40.284,48.647,39.81,48.152,39.364z"/>
		</g>
	</g>
	<polyline fill="none" stroke="#231F20" stroke-width="0.5" points="28.216,137.208 13.882,122.874 13.882,58.75 	"/>
</g>
</svg>
