<?xml version="1.0" encoding="utf-8"?>
<!-- Generator: Adobe Illustrator 16.0.4, SVG Export Plug-In . SVG Version: 6.00 Build 0)  -->
<!DOCTYPE svg PUBLIC "-//W3C//DTD SVG 1.1//EN" "http://www.w3.org/Graphics/SVG/1.1/DTD/svg11.dtd">
<svg version="1.1" id="Layer_1" xmlns="http://www.w3.org/2000/svg" xmlns:xlink="http://www.w3.org/1999/xlink" x="0px" y="0px"
	 width="73px" height="140px" viewBox="0 0 73 140" enable-background="new 0 0 73 140" xml:space="preserve">
<g>
	<g>
		<path fill="#231F20" d="M36.5,2.792c-17.996,0-32.618,14.624-32.618,32.618c0,17.996,14.622,32.56,32.618,32.56
			s32.618-14.563,32.618-32.56C69.118,17.416,54.496,2.792,36.5,2.792L36.5,2.792z"/>
		<g>
			<path fill="#FFFFFF" d="M46.212,18.413L38.02,33.844l15.512-8.065l-0.586,3.067l-13.56,8.619
				c-0.259,0.167-0.534,0.301-0.821,0.395c-0.286,0.097-0.574,0.184-0.866,0.26c-0.009,0.453-0.026,0.834-0.058,1.151
				c-0.03,0.311-0.09,0.604-0.18,0.878c-0.088,0.271-0.214,0.544-0.377,0.827c-0.168,0.278-0.386,0.615-0.662,1.016
				c-0.131,0.177-0.244,0.349-0.338,0.521c-0.096,0.175-0.082,0.367,0.039,0.581c0.361,0.637,0.576,1.312,0.648,2.027
				c0.074,0.717,0.029,1.428-0.129,2.133c-0.163,0.705-0.423,1.379-0.78,2.021c-0.364,0.645-0.789,1.212-1.279,1.702
				c-0.383,0.383-0.809,0.694-1.274,0.929c-0.467,0.238-0.945,0.381-1.437,0.426c-0.492,0.047-0.975-0.008-1.455-0.168
				c-0.479-0.155-0.924-0.44-1.337-0.854c-0.345-0.345-0.584-0.736-0.713-1.173s-0.179-0.892-0.149-1.367
				c0.03-0.476,0.126-0.958,0.285-1.448c0.163-0.488,0.363-0.96,0.6-1.413c0.237-0.452,0.499-0.876,0.788-1.271
				c0.287-0.393,0.567-0.729,0.844-1.005c0.305-0.305,0.609-0.544,0.908-0.71c0.299-0.17,0.583-0.317,0.851-0.437
				c0.269-0.126,0.521-0.241,0.765-0.352c0.241-0.112,0.457-0.264,0.647-0.454c0.246-0.247,0.39-0.522,0.43-0.835
				c0.044-0.311,0.037-0.63-0.016-0.958c-0.052-0.328-0.133-0.658-0.241-0.99c-0.105-0.326-0.188-0.635-0.241-0.918
				c-0.292-0.062-0.601-0.145-0.924-0.247c-0.326-0.103-0.653-0.185-0.977-0.241c-0.326-0.056-0.639-0.061-0.944-0.012
				c-0.301,0.053-0.579,0.202-0.832,0.455c-0.2,0.2-0.356,0.415-0.471,0.654c-0.115,0.239-0.23,0.487-0.345,0.749
				c-0.115,0.258-0.257,0.531-0.422,0.821c-0.163,0.287-0.396,0.578-0.694,0.877c-0.275,0.276-0.611,0.557-1.004,0.845
				c-0.395,0.288-0.822,0.55-1.282,0.785c-0.458,0.239-0.935,0.438-1.425,0.597c-0.489,0.165-0.977,0.26-1.457,0.291
				c-0.483,0.029-0.943-0.021-1.381-0.149c-0.436-0.13-0.826-0.368-1.172-0.714c-0.413-0.413-0.699-0.859-0.854-1.337
				c-0.159-0.48-0.214-0.963-0.168-1.454c0.046-0.492,0.186-0.968,0.421-1.432c0.231-0.462,0.537-0.883,0.911-1.258
				c0.49-0.49,1.062-0.914,1.714-1.275c0.649-0.36,1.334-0.623,2.051-0.787c0.715-0.164,1.435-0.213,2.155-0.143
				c0.718,0.068,1.389,0.289,2.009,0.666c0.223,0.131,0.421,0.149,0.598,0.055c0.178-0.09,0.352-0.199,0.529-0.331
				c0.406-0.282,0.748-0.505,1.033-0.666s0.559-0.282,0.828-0.368c0.268-0.084,0.561-0.138,0.873-0.16s0.701-0.044,1.16-0.057
				c0.069-0.3,0.15-0.596,0.242-0.886c0.091-0.29,0.222-0.567,0.39-0.827l8.732-13.489L46.212,18.413z M30.471,50.287
				c0.229,0.229,0.486,0.354,0.773,0.375c0.291,0.018,0.578-0.021,0.872-0.122c0.287-0.1,0.562-0.241,0.824-0.425
				c0.263-0.184,0.481-0.367,0.667-0.553c0.281-0.281,0.561-0.652,0.834-1.108c0.271-0.455,0.48-0.931,0.625-1.431
				c0.145-0.498,0.197-0.988,0.161-1.471c-0.037-0.481-0.23-0.896-0.575-1.24c-0.23-0.23-0.48-0.361-0.744-0.391
				c-0.271-0.032-0.537-0.004-0.807,0.08c-0.269,0.084-0.524,0.211-0.763,0.387c-0.244,0.17-0.455,0.349-0.64,0.533
				c-0.184,0.184-0.377,0.414-0.574,0.688c-0.197,0.276-0.379,0.572-0.54,0.899c-0.161,0.316-0.301,0.654-0.421,1.004
				c-0.117,0.348-0.192,0.689-0.223,1.027c-0.029,0.338-0.005,0.656,0.076,0.959C30.096,49.802,30.247,50.063,30.471,50.287z
				 M26.896,40.072c0.184-0.184,0.361-0.397,0.529-0.644c0.166-0.245,0.296-0.498,0.385-0.763c0.088-0.267,0.118-0.53,0.092-0.795
				c-0.027-0.263-0.15-0.506-0.373-0.729c-0.346-0.345-0.764-0.537-1.251-0.573c-0.494-0.04-0.987,0.018-1.489,0.165
				c-0.503,0.148-0.979,0.363-1.43,0.64c-0.455,0.274-0.822,0.556-1.105,0.838c-0.177,0.178-0.355,0.394-0.539,0.654
				c-0.184,0.263-0.328,0.531-0.437,0.819c-0.106,0.279-0.149,0.562-0.127,0.847c0.022,0.285,0.149,0.541,0.379,0.771
				c0.345,0.344,0.768,0.523,1.265,0.541c0.498,0.012,1.004-0.065,1.523-0.236c0.515-0.175,1.007-0.404,1.471-0.689
				C26.25,40.631,26.621,40.348,26.896,40.072z"/>
		</g>
	</g>
	<polyline fill="none" stroke="#231F20" stroke-width="0.5" points="28.216,137.208 13.882,122.874 13.882,58.75 	"/>
</g>
</svg>
