<?xml version="1.0" encoding="utf-8"?>
<!-- Generator: Adobe Illustrator 16.0.4, SVG Export Plug-In . SVG Version: 6.00 Build 0)  -->
<!DOCTYPE svg PUBLIC "-//W3C//DTD SVG 1.1//EN" "http://www.w3.org/Graphics/SVG/1.1/DTD/svg11.dtd">
<svg version="1.1" id="Layer_1" xmlns="http://www.w3.org/2000/svg" xmlns:xlink="http://www.w3.org/1999/xlink" x="0px" y="0px"
	 width="182px" height="118px" viewBox="0 0 182 118" enable-background="new 0 0 182 118" xml:space="preserve">
<g>
	<path fill="#231F20" d="M44.333,0.043c-9.003,0-16.259,7.256-16.259,16.271v60.987c0,9.002,7.256,16.257,16.259,16.257h36.598
		v12.199H64.662c-2.254,0-4.061,1.807-4.061,4.06v8.141h73.177v-8.141c0-2.253-1.807-4.06-4.061-4.06h-16.269V93.558h36.598
		c9.002,0,16.259-7.255,16.259-16.257V16.313c0-9.015-7.257-16.271-16.259-16.271H44.333L44.333,0.043z M48.403,16.313h97.573
		c2.254,0,4.07,1.807,4.07,4.059v52.856c0,2.254-1.816,4.072-4.07,4.072H48.403c-2.252,0-4.07-1.818-4.07-4.072V20.372
		C44.333,18.12,46.151,16.313,48.403,16.313L48.403,16.313z"/>
	<path fill="#241F20" d="M171.177,68.668H160.62c-5.829,0-10.556,5.518-10.556,12.321v24.646c0,6.806,4.727,12.322,10.556,12.322
		h10.557c5.831,0,10.558-5.517,10.558-12.322V80.989C181.734,74.186,177.008,68.668,171.177,68.668z M165.898,114.974
		c-1.5,0-2.721-1.425-2.721-3.178s1.221-3.178,2.721-3.178c1.504,0,2.723,1.425,2.723,3.178S167.402,114.974,165.898,114.974z
		 M176.455,105.635h-21.113V80.989c0-3.396,2.369-6.159,5.278-6.159h10.557c2.912,0,5.278,2.764,5.278,6.159V105.635z"/>
	<g>
		<g>
			<path fill="#231F20" d="M56.445,110.602c0,4.062-3.295,7.355-7.356,7.355H7.619c-4.062,0-7.354-3.293-7.354-7.355V52.789
				c0-4.062,3.291-7.354,7.354-7.354h41.47c4.062,0,7.356,3.292,7.356,7.354V110.602z"/>
			<path fill="#FFFFFF" d="M50.191,104.164c0,3.157-2.565,5.718-5.721,5.718H12.236c-3.158,0-5.717-2.561-5.717-5.718V59.229
				c0-3.157,2.559-5.718,5.717-5.718h32.234c3.155,0,5.721,2.561,5.721,5.718V104.164z"/>
		</g>
		<path fill="#FFFFFF" d="M32.089,114.256c0,0.43-0.348,0.777-0.777,0.777h-5.913c-0.43,0-0.776-0.348-0.776-0.777l0,0
			c0-0.429,0.347-0.776,0.776-0.776h5.913C31.741,113.479,32.089,113.827,32.089,114.256L32.089,114.256z"/>
	</g>
</g>
</svg>
