<?xml version="1.0" encoding="utf-8"?>
<!-- Generator: Adobe Illustrator 16.0.4, SVG Export Plug-In . SVG Version: 6.00 Build 0)  -->
<!DOCTYPE svg PUBLIC "-//W3C//DTD SVG 1.1//EN" "http://www.w3.org/Graphics/SVG/1.1/DTD/svg11.dtd">
<svg version="1.1" id="Layer_1" xmlns="http://www.w3.org/2000/svg" xmlns:xlink="http://www.w3.org/1999/xlink" x="0px" y="0px"
	 width="120px" height="120px" viewBox="0 0 120 120" enable-background="new 0 0 120 120" xml:space="preserve">
<g>
	<path fill="#231F20" stroke="#231F20" stroke-width="2.7954" stroke-miterlimit="10" d="M18.489,97.012l7.319,7.321l8.803-8.798
		l-6.843-6.844L18.489,97.012z M55.111,116.039h9.778v-14.166h-9.778V116.039z M20.917,57.933H6.282v9.778h14.635V57.933z
		 M74.641,37.43V13.992H45.335V37.43c-8.773,4.89-14.637,14.639-14.637,25.388c0,16.122,13.184,29.307,29.305,29.307
		c16.115,0,29.301-13.185,29.301-29.307C89.304,52.069,83.438,42.32,74.641,37.43L74.641,37.43z M99.055,57.933v9.778h14.663v-9.778
		H99.055z M85.393,95.535l8.775,8.798l6.842-6.845l-8.798-8.797L85.393,95.535z M85.393,95.535"/>
	
		<line fill="none" stroke="#FFFFFF" stroke-width="1.3977" stroke-miterlimit="10" x1="43.782" y1="20.082" x2="76.237" y2="20.082"/>
	
		<line fill="none" stroke="#FFFFFF" stroke-width="1.3977" stroke-miterlimit="10" x1="43.782" y1="25.666" x2="76.237" y2="25.666"/>
	<polygon fill="#231F20" stroke="#231F20" stroke-width="1.3977" stroke-miterlimit="10" points="45.616,9.817 49.808,3.961 
		70.222,3.961 74.414,9.817 	"/>
</g>
</svg>
