<?xml version="1.0" encoding="utf-8"?>
<!-- Generator: Adobe Illustrator 16.0.4, SVG Export Plug-In . SVG Version: 6.00 Build 0)  -->
<!DOCTYPE svg PUBLIC "-//W3C//DTD SVG 1.1//EN" "http://www.w3.org/Graphics/SVG/1.1/DTD/svg11.dtd">
<svg version="1.1" id="Layer_1" xmlns="http://www.w3.org/2000/svg" xmlns:xlink="http://www.w3.org/1999/xlink" x="0px" y="0px"
	 width="130px" height="130px" viewBox="0 0 130 130" enable-background="new 0 0 130 130" xml:space="preserve">
<g>
	<path fill="#231F20" d="M65,0.439c-35.651,0-64.618,28.971-64.618,64.619c0,35.65,28.967,64.502,64.618,64.502
		s64.618-28.852,64.618-64.502C129.618,29.41,100.651,0.439,65,0.439L65,0.439z"/>
	<path id="_x36_" fill="#FFFFFF" d="M56.231,79.719h-20.09v2.036h20.09V79.719z M56.239,67.164H36.142v2.043h20.098V67.164z
		 M56.231,73.445h-20.09v2.027h20.09V73.445z M56.231,49.814H36.163v12.084h20.068V49.814z M88.524,36.49H62.512v0.002H22.942V93.51
		h44.543v-0.011h39.572V55.375L88.524,36.49z M62.061,88.08H28.364V41.908h33.696V88.08z M101.632,88.08H67.937V41.915h18.31
		l-0.235,7.205c0,0-0.266,8.171,5.764,8.362c4.359,0.148,8.025,0.043,9.729-0.021l0.128,0.126V88.08z M74.767,69.207h20.096v-2.043
		H74.767V69.207z M74.767,75.473h20.09v-2.027h-20.09V75.473z M84.021,60.391h-9.254v2.035h9.254V60.391z M74.767,81.755h20.09
		v-2.036h-20.09V81.755z"/>
</g>
</svg>
