<?xml version="1.0" encoding="utf-8"?>
<!-- Generator: Adobe Illustrator 16.0.4, SVG Export Plug-In . SVG Version: 6.00 Build 0)  -->
<!DOCTYPE svg PUBLIC "-//W3C//DTD SVG 1.1//EN" "http://www.w3.org/Graphics/SVG/1.1/DTD/svg11.dtd">
<svg version="1.1" id="Layer_1" xmlns="http://www.w3.org/2000/svg" xmlns:xlink="http://www.w3.org/1999/xlink" x="0px" y="0px"
	 width="112px" height="112px" viewBox="75.035 -15.463 112 112" enable-background="new 75.035 -15.463 112 112"
	 xml:space="preserve">
<g>
	<g>
		<defs>
			<rect id="SVGID_1_" x="62.105" y="-28.393" width="137.86" height="137.86"/>
		</defs>
		<clipPath id="SVGID_2_">
			<use xlink:href="#SVGID_1_"  overflow="visible"/>
		</clipPath>
		<path clip-path="url(#SVGID_2_)" fill="#231F20" d="M84.889,40.869c0,18.4,10.691,34.299,26.197,41.833L88.912,21.954
			C86.334,27.733,84.889,34.131,84.889,40.869"/>
	</g>
	<g>
		<defs>
			<rect id="SVGID_3_" x="62.105" y="-28.393" width="137.86" height="137.86"/>
		</defs>
		<clipPath id="SVGID_4_">
			<use xlink:href="#SVGID_3_"  overflow="visible"/>
		</clipPath>
		<path clip-path="url(#SVGID_4_)" fill="#231F20" d="M162.746,38.525c0-5.746-2.064-9.723-3.832-12.818
			c-2.355-3.832-4.564-7.071-4.564-10.902c0-4.273,3.238-8.249,7.805-8.249c0.207,0,0.402,0.024,0.604,0.037
			C154.486-0.984,143.469-5.61,131.369-5.61c-16.238,0-30.525,8.332-38.834,20.948c1.09,0.036,2.117,0.058,2.99,0.058
			c4.861,0,12.389-0.591,12.389-0.591c2.504-0.147,2.799,3.535,0.297,3.832c0,0-2.521,0.294-5.32,0.44l16.924,50.349l10.174-30.507
			l-7.242-19.843c-2.502-0.146-4.873-0.44-4.873-0.44c-2.506-0.148-2.213-3.978,0.295-3.832c0,0,7.674,0.591,12.24,0.591
			c4.859,0,12.387-0.591,12.387-0.591c2.506-0.147,2.805,3.534,0.299,3.832c0,0-2.521,0.294-5.32,0.44L154.57,69.04l4.639-15.488
			C161.215,47.119,162.746,42.503,162.746,38.525"/>
	</g>
	<g>
		<defs>
			<rect id="SVGID_5_" x="62.105" y="-28.393" width="137.86" height="137.86"/>
		</defs>
		<clipPath id="SVGID_6_">
			<use xlink:href="#SVGID_5_"  overflow="visible"/>
		</clipPath>
		<path clip-path="url(#SVGID_6_)" fill="#231F20" d="M132.186,44.935l-13.949,40.524c4.166,1.225,8.568,1.894,13.131,1.894
			c5.414,0,10.605-0.936,15.436-2.635c-0.123-0.2-0.238-0.412-0.332-0.641L132.186,44.935z"/>
	</g>
	<g>
		<defs>
			<rect id="SVGID_7_" x="62.105" y="-28.393" width="137.86" height="137.86"/>
		</defs>
		<clipPath id="SVGID_8_">
			<use xlink:href="#SVGID_7_"  overflow="visible"/>
		</clipPath>
		<path clip-path="url(#SVGID_8_)" fill="#231F20" d="M172.154,18.572c0.199,1.479,0.312,3.067,0.312,4.779
			c0,4.716-0.883,10.018-3.535,16.648l-14.195,41.048c13.818-8.058,23.111-23.027,23.111-40.177
			C177.848,32.789,175.783,25.192,172.154,18.572"/>
	</g>
	<g>
		<defs>
			<rect id="SVGID_9_" x="62.105" y="-28.393" width="137.86" height="137.86"/>
		</defs>
		<clipPath id="SVGID_10_">
			<use xlink:href="#SVGID_9_"  overflow="visible"/>
		</clipPath>
		<path clip-path="url(#SVGID_10_)" fill="#231F20" d="M131.369-13.311c-29.875,0-54.182,24.305-54.182,54.181
			c0,29.878,24.307,54.185,54.182,54.185s54.182-24.308,54.182-54.185S161.244-13.311,131.369-13.311 M131.369,92.568
			c-28.506,0-51.697-23.192-51.697-51.698c0-28.505,23.191-51.696,51.697-51.696c28.504,0,51.697,23.191,51.697,51.696
			C183.066,69.376,159.873,92.568,131.369,92.568"/>
	</g>
</g>
</svg>
