<?xml version="1.0" encoding="utf-8"?>
<!-- Generator: Adobe Illustrator 16.0.4, SVG Export Plug-In . SVG Version: 6.00 Build 0)  -->
<!DOCTYPE svg PUBLIC "-//W3C//DTD SVG 1.1//EN" "http://www.w3.org/Graphics/SVG/1.1/DTD/svg11.dtd">
<svg version="1.1" id="Layer_1" xmlns="http://www.w3.org/2000/svg" xmlns:xlink="http://www.w3.org/1999/xlink" x="0px" y="0px"
	 width="130px" height="130px" viewBox="0 0 130 130" enable-background="new 0 0 130 130" xml:space="preserve">
<g>
	<path fill="#231F20" d="M65,0.439c-35.65,0-64.619,28.971-64.619,64.619c0,35.65,28.969,64.502,64.619,64.502
		s64.619-28.852,64.619-64.502C129.619,29.41,100.65,0.439,65,0.439L65,0.439z"/>
	<path fill="#FFFFFF" d="M86.828,101.451c-0.371-0.361-0.735-0.779-1.05-1.203L54.371,68.84c-7.623,2.426-16.305,0.578-22.355-5.465
		c-5.1-5.108-7.2-12.105-6.307-18.73l12.568,12.574l14.938-4.055l4.055-14.94L44.694,25.709c6.677-0.893,13.622,1.203,18.73,6.262
		c6.046,6.098,7.889,14.779,5.464,22.404l31.406,31.404c0.422,0.31,0.793,0.627,1.156,0.998c4.053,4.047,4.053,10.627,0,14.674
		C97.457,105.506,90.881,105.506,86.828,101.451z M95.98,89.676c-1.736-1.736-4.578-1.736-6.309,0c-1.736,1.736-1.736,4.521,0,6.257
		c1.73,1.736,4.572,1.736,6.309,0S97.717,91.412,95.98,89.676z"/>
</g>
</svg>
