<?xml version="1.0" encoding="utf-8"?>
<!-- Generator: Adobe Illustrator 16.0.4, SVG Export Plug-In . SVG Version: 6.00 Build 0)  -->
<!DOCTYPE svg PUBLIC "-//W3C//DTD SVG 1.1//EN" "http://www.w3.org/Graphics/SVG/1.1/DTD/svg11.dtd">
<svg version="1.1" id="Layer_1" xmlns="http://www.w3.org/2000/svg" xmlns:xlink="http://www.w3.org/1999/xlink" x="0px" y="0px"
	 width="65px" height="65px" viewBox="0 0 65 65" enable-background="new 0 0 65 65" xml:space="preserve">
<g>
	<path fill="#231F20" d="M56.631,0.325H8.369c-4.425,0-8.044,3.619-8.044,8.043v48.264c0,4.426,3.619,8.043,8.044,8.043h48.263
		c4.427,0,8.044-3.617,8.044-8.043V8.368C64.676,3.944,61.059,0.325,56.631,0.325"/>
	<path fill="#FFFFFF" d="M40.257,32.64h-5.479v18.77h-8.044V32.64h-2.681v-8.043h2.681v-3.021c0-3.119,1.257-7.984,7.767-7.984
		l5.64,0.021v5.621h-3.543c-0.696,0-1.819,1.254-1.819,2.74v2.623h6.171L40.257,32.64z"/>
</g>
</svg>
