<?xml version="1.0" encoding="utf-8"?>
<!-- Generator: Adobe Illustrator 16.0.4, SVG Export Plug-In . SVG Version: 6.00 Build 0)  -->
<!DOCTYPE svg PUBLIC "-//W3C//DTD SVG 1.1//EN" "http://www.w3.org/Graphics/SVG/1.1/DTD/svg11.dtd">
<svg version="1.1" id="Layer_1" xmlns="http://www.w3.org/2000/svg" xmlns:xlink="http://www.w3.org/1999/xlink" x="0px" y="0px"
	 width="112px" height="112px" viewBox="0 0 112 112" enable-background="new 0 0 112 112" xml:space="preserve">
<circle stroke="#000000" stroke-miterlimit="10" cx="56" cy="56.001" r="52.834"/>
<path fill="#FFFFFF" d="M26.3,78.893l5.238,5.237l6.297-6.295l-4.896-4.896L26.3,78.893z M52.502,92.506h6.996V82.371h-6.996V92.506
	z M28.038,50.934H17.566v6.996h10.472V50.934z M66.475,36.264v-16.77H45.507v16.77c-6.276,3.498-10.473,10.473-10.473,18.166
	c0,11.533,9.434,20.965,20.967,20.965c11.531,0,20.964-9.433,20.964-20.965C76.966,46.737,72.769,39.762,66.475,36.264
	L66.475,36.264z M83.942,50.934v6.996h10.491v-6.996H83.942z M74.168,77.835l6.278,6.295l4.896-4.896l-6.296-6.296L74.168,77.835z
	 M74.168,77.835"/>
<line fill="none" stroke="#000000" stroke-miterlimit="10" x1="44.397" y1="23.852" x2="67.617" y2="23.852"/>
<line fill="none" stroke="#000000" stroke-miterlimit="10" x1="44.397" y1="27.846" x2="67.617" y2="27.846"/>
<polygon fill="#FFFFFF" points="45.708,18.508 48.708,14.317 63.313,14.317 66.313,18.508 "/>
</svg>
