<?xml version="1.0" encoding="utf-8"?>
<!-- Generator: Adobe Illustrator 16.0.4, SVG Export Plug-In . SVG Version: 6.00 Build 0)  -->
<!DOCTYPE svg PUBLIC "-//W3C//DTD SVG 1.1//EN" "http://www.w3.org/Graphics/SVG/1.1/DTD/svg11.dtd">
<svg version="1.1" id="Layer_1" xmlns="http://www.w3.org/2000/svg" xmlns:xlink="http://www.w3.org/1999/xlink" x="0px" y="0px"
	 width="65px" height="65px" viewBox="0 0 65 65" enable-background="new 0 0 65 65" xml:space="preserve">
<g>
	<path fill="#231F20" d="M56.631,0.325H8.369c-4.426,0-8.044,3.619-8.044,8.043v48.264c0,4.426,3.618,8.043,8.044,8.043h48.262
		c4.43,0,8.044-3.617,8.044-8.043V8.368C64.675,3.944,61.061,0.325,56.631,0.325"/>
	<g>
		<polygon fill="#FFFFFF" points="21.248,50.376 20.522,50.376 15.885,50.376 15.885,26.245 21.248,26.245 		"/>
		<path fill="#FFFFFF" d="M18.667,23.564h-0.053c-2.642,0-4.35-2.209-4.35-4.479c0-2.326,1.76-4.453,4.456-4.453
			c2.686,0,4.35,2.021,4.403,4.348C23.124,21.253,21.406,23.564,18.667,23.564"/>
		<path fill="#FFFFFF" d="M50.741,50.376h-5.362V36.353c0-3.182-2.512-4.668-5.362-4.668c-3.117,0-5.362,3.965-5.362,4.668v14.023
			h-5.363v-1.557V26.245h5.363v3.881c2.681-1.615,3.793-3.881,8.043-3.881c5.18,0,8.044,0,8.044,8.043V50.376z"/>
	</g>
</g>
</svg>
