<?xml version="1.0" encoding="utf-8"?>
<!-- Generator: Adobe Illustrator 16.0.4, SVG Export Plug-In . SVG Version: 6.00 Build 0)  -->
<!DOCTYPE svg PUBLIC "-//W3C//DTD SVG 1.1//EN" "http://www.w3.org/Graphics/SVG/1.1/DTD/svg11.dtd">
<svg version="1.1" id="Layer_1" xmlns="http://www.w3.org/2000/svg" xmlns:xlink="http://www.w3.org/1999/xlink" x="0px" y="0px"
	 width="384px" height="68px" viewBox="0 0 384 68" enable-background="new 0 0 384 68" xml:space="preserve">
<g>
	<path d="M24.052,9.891L9.258,58.557H4.53L19.324,9.891H24.052z"/>
	<path d="M43.465,33.528c0-2.67-3.56-1.112-3.56-2.67c0-0.89,0.834-0.945,2.781-1.446c4.672-1.057,5.339-2.392,6.007-2.392
		c0.667,0,0.667,0.389,0.667,1.112v18.744c0,3.56,4.061,2.058,4.061,3.949c0,0.889-1.613,0.723-2.281,0.723
		c-1.779,0-3.504-0.223-5.283-0.223c-1.335,0-2.726,0.223-4.116,0.223c-0.945,0-1.557,0.166-1.557-0.779
		c0-1.391,3.281-0.444,3.281-3.003V33.528z M46.468,22.794c-0.89,0-3.67-3.56-3.67-4.394c0-0.834,2.78-4.45,3.67-4.45
		c0.946,0,3.671,3.615,3.671,4.45C50.139,19.234,47.414,22.794,46.468,22.794z"/>
	<path d="M72.165,46.32c0,1.391-3.615,5.006-5.006,5.006s-5.006-3.615-5.006-5.006s3.615-5.006,5.006-5.006
		S72.165,44.93,72.165,46.32z"/>
	<path d="M100.921,45.208c0,2.781,0.056,3.448,1.502,3.448c0.667,0,1.391-0.277,1.779-0.277c0.39,0,0.612,0.223,0.612,0.5
		c0,1.112-3.393,3.059-5.396,3.059c-2.614,0-3.393-2.225-3.615-3.393c-2.336,1.892-5.617,3.393-8.676,3.393
		c-3.06,0-5.229-2.168-5.229-5.228c0-6.841,7.397-7.786,13.126-9.233c0-4.783-0.39-8.175-4.783-8.175
		c-2.113,0-2.559,0.556-2.559,3.115c0,2.613-3.56,2.613-3.949,2.613c-0.444,0-1.445-0.11-1.445-1.167
		c0-4.838,6.284-6.396,10.178-6.396c5.729,0,8.454,2.559,8.454,8.176V45.208z M95.025,41.371c0-1.502,0.111-2.003-0.39-2.003
		c-2.169,0-6.562,1.892-6.562,5.618c0,0.889,0.056,3.67,2.947,3.67c1.224,0,4.005-0.611,4.005-1.891V41.371z"/>
	<path d="M129.454,46.766c0,3.671,3.615,2.336,3.615,3.893c0,0.39-0.111,0.891-0.834,0.891c-1.057,0-2.28-0.223-4.783-0.223
		c-3.114,0-4.282,0.223-5.062,0.223c-0.723,0-1.001-0.223-1.001-0.723c0-1.279,2.169-0.668,2.169-3.615v-9.845
		c0-5.339-1.891-6.396-4.394-6.396c-3.337,0-4.116,2.559-4.116,3.282v12.625c0,3.56,3.727,2.058,3.727,3.949
		c0,0.889-1.279,0.723-1.946,0.723c-1.78,0-3.504-0.223-5.284-0.223c-1.335,0-2.725,0.223-3.837,0.223
		c-0.946,0-1.279,0.166-1.279-0.779c0-1.391,2.725-0.444,2.725-3.003V33.528c0-2.67-3.56-1.112-3.56-2.67
		c0-0.89,0.835-0.945,2.781-1.446c4.672-1.057,5.34-2.392,6.007-2.392s0.667,0.389,0.667,1.112v2.781
		c1.836-1.891,4.061-3.448,7.119-3.448c2.837,0,4.95,1.613,6.508,3.838c1.335-1.78,3.949-3.838,7.509-3.838
		c6.396,0,7.675,4.06,7.675,10.011v9.4c0,3.226,3.504,2.169,3.504,3.727c0,1.057-0.89,0.945-1.668,0.945
		c-1.112,0-2.226-0.223-3.338-0.223c-2.002,0-4.449,0.223-5.339,0.223s-1.279-0.111-1.279-0.834c0-0.945,2.225-1.113,2.225-2.67
		V38.033c0-3.281-0.056-7.286-4.449-7.286c-4.561,0-4.061,5.061-4.061,5.729V46.766z"/>
	<path d="M165.608,46.32c0,1.391-3.614,5.006-5.005,5.006s-5.006-3.615-5.006-5.006s3.615-5.006,5.006-5.006
		S165.608,44.93,165.608,46.32z"/>
	<path d="M177.679,33.528c0-2.67-3.56-1.112-3.56-2.67c0-0.89,0.834-0.945,2.781-1.446c4.672-1.057,5.339-2.392,6.006-2.392
		c0.668,0,0.668,0.389,0.668,1.112v20.69c0,8.677-6.062,13.794-9.455,13.794c-2.28,0-2.726-0.779-2.837-1.002
		c-0.223-0.611-0.277-1.223-0.277-1.891c0-1.112,0.166-3.671,1.168-3.671c0.89,0,2.113,3.337,3.893,3.337
		c1.725,0,1.613-3.004,1.613-4.895V33.528z M180.682,22.794c-0.89,0-3.671-3.56-3.671-4.394c0-0.834,2.781-4.45,3.671-4.45
		c0.946,0,3.671,3.615,3.671,4.45C184.353,19.234,181.628,22.794,180.682,22.794z"/>
	<path d="M196.535,37.922c-1.001,0-1.224-0.389-1.224,1.391c0,4.783,3.393,9.121,8.231,9.121c3.281,0,6.007-2.947,6.896-2.947
		c0.223,0,0.557,0.056,0.557,0.668c0,1.39-4.672,5.783-10.401,5.783c-5.506,0-10.956-3.504-10.956-11.123
		c0-6.396,3.615-13.349,10.79-13.349c7.452,0,10.456,6.341,10.456,9.233c0,1.223-0.334,1.223-0.668,1.223H196.535z M203.599,35.976
		c0.945,0,1.279,0.056,1.279-1.502c0-2.113-1.558-5.395-5.062-5.395c-3.337,0-4.561,3.281-4.561,5.84
		c0,0.89,0.111,1.057,0.278,1.057H203.599z"/>
	<path d="M216.78,33.528c0-2.67-3.56-1.112-3.56-2.67c0-0.89,0.835-0.945,2.781-1.446c4.672-1.057,5.339-2.392,6.007-2.392
		c0.667,0,0.667,0.389,0.667,1.112v3.17h0.111c1.502-2.447,4.283-3.838,7.564-3.838c6.007,0,8.454,4.95,8.454,10.345v9.011
		c0,3.504,3.448,2.669,3.448,3.894c0,0.667-0.334,0.834-1.279,0.834c-1.78,0-3.56-0.223-4.728-0.223
		c-1.391,0-3.393,0.223-4.061,0.223c-1.057,0-1.835,0.277-1.835-0.723c0-0.946,2.559-1.447,2.559-3.504v-9.455
		c0-3.615-1.279-6.786-5.451-6.786c-3.671,0-4.783,2.114-4.783,5.339v10.29c0,3.17,4.506,2.669,4.506,4.005
		c0,0.5-0.39,0.834-1.725,0.834c-0.612,0-2.614-0.223-5.45-0.223c-1.947,0-3.894,0.223-5.562,0.223
		c-0.556,0-0.611-0.334-0.611-0.611c0-1.613,2.947-0.111,2.947-4.729V33.528z"/>
	<path d="M247.428,33.528c0-2.67-3.56-1.112-3.56-2.67c0-0.89,0.835-0.945,2.781-1.446c4.672-1.057,5.339-2.392,6.007-2.392
		c0.667,0,0.667,0.389,0.667,1.112v3.17h0.111c1.502-2.447,4.283-3.838,7.564-3.838c6.007,0,8.454,4.95,8.454,10.345v9.011
		c0,3.504,3.448,2.669,3.448,3.894c0,0.667-0.334,0.834-1.279,0.834c-1.78,0-3.56-0.223-4.728-0.223
		c-1.391,0-3.393,0.223-4.061,0.223c-1.057,0-1.835,0.277-1.835-0.723c0-0.946,2.559-1.447,2.559-3.504v-9.455
		c0-3.615-1.279-6.786-5.451-6.786c-3.671,0-4.783,2.114-4.783,5.339v10.29c0,3.17,4.506,2.669,4.506,4.005
		c0,0.5-0.39,0.834-1.725,0.834c-0.611,0-2.614-0.223-5.45-0.223c-1.947,0-3.894,0.223-5.562,0.223
		c-0.556,0-0.611-0.334-0.611-0.611c0-1.613,2.947-0.111,2.947-4.729V33.528z"/>
	<path d="M278.465,33.528c0-2.67-3.56-1.112-3.56-2.67c0-0.89,0.834-0.945,2.781-1.446c4.672-1.057,5.339-2.392,6.007-2.392
		c0.667,0,0.667,0.389,0.667,1.112v18.744c0,3.56,4.061,2.058,4.061,3.949c0,0.889-1.613,0.723-2.281,0.723
		c-1.779,0-3.504-0.223-5.283-0.223c-1.335,0-2.726,0.223-4.116,0.223c-0.945,0-1.557,0.166-1.557-0.779
		c0-1.391,3.281-0.444,3.281-3.003V33.528z M281.468,22.794c-0.89,0-3.67-3.56-3.67-4.394c0-0.834,2.78-4.45,3.67-4.45
		c0.946,0,3.671,3.615,3.671,4.45C285.139,19.234,282.414,22.794,281.468,22.794z"/>
	<path d="M292.147,28.189c0.557,0,1.725,0,1.725-0.834c0.167-2.614,0.223-5.562,1.335-8.398c1.445-3.727,4.783-8.454,9.232-8.454
		c1.279,0,2.947,0.222,2.947,1.835c0,0.89-0.723,4.282-1.835,4.282c-0.945,0-0.668-2.892-2.948-2.892
		c-2.669,0-2.613,3.449-2.613,5.339v8.176c0,0.5-0.167,0.945,0.389,0.945h3.894c1.279,0,0.945-1.224,1.78-1.224
		c0.222,0,0.333,0.167,0.333,0.389c0,0.39-0.556,1.613-0.723,2.058c-0.39,0.779-0.39,1.78-1.112,1.78h-3.727
		c-0.668,0-0.834,0.389-0.834,1.335v13.516c0,5.116,4.672,2.613,4.672,4.783c0,0.611-0.39,0.723-1.001,0.723
		c-1.002,0-3.338-0.223-6.062-0.223c-2.17,0-4.395,0.223-5.507,0.223c-0.556,0-0.778-0.167-0.778-0.779
		c0-1.668,2.781-0.223,2.781-3.114V33.25c0-0.834,0-2.058-0.946-2.058h-3.059v-3.003H292.147z"/>
	<path d="M315.676,37.922c-1.001,0-1.224-0.389-1.224,1.391c0,4.783,3.393,9.121,8.231,9.121c3.281,0,6.007-2.947,6.896-2.947
		c0.223,0,0.557,0.056,0.557,0.668c0,1.39-4.672,5.783-10.401,5.783c-5.506,0-10.956-3.504-10.956-11.123
		c0-6.396,3.615-13.349,10.79-13.349c7.452,0,10.456,6.341,10.456,9.233c0,1.223-0.334,1.223-0.668,1.223H315.676z M322.739,35.976
		c0.945,0,1.279,0.056,1.279-1.502c0-2.113-1.558-5.395-5.062-5.395c-3.337,0-4.561,3.281-4.561,5.84
		c0,0.89,0.111,1.057,0.278,1.057H322.739z"/>
	<path d="M342.206,45.542c0,5.116,5.173,3.448,5.173,5.062c0,0.334-0.223,0.945-0.835,0.945c-1.335,0-4.505-0.223-6.34-0.223
		c-2.614,0-4.228,0.223-5.618,0.223c-0.723,0-0.945-0.111-0.945-0.557c0-1.725,2.67-0.277,2.67-4.394v-13.07
		c0-2.67-3.56-1.112-3.56-2.67c0-0.89,0.834-0.945,2.781-1.446c4.672-1.057,5.339-2.392,6.007-2.392
		c0.667,0,0.667,0.389,0.667,1.112v4.283c2.447-2.892,4.449-4.95,5.84-4.95s4.394,2.503,4.394,3.56c0,2.058-1.891,4.672-2.892,4.672
		c-1.112,0-1.391-2.225-4.449-2.225c-3.06,0-2.893,4.227-2.893,4.672V45.542z"/>
	<path d="M375.968,9.891l-14.794,48.666h-4.728L371.24,9.891H375.968z"/>
</g>
</svg>
