<?xml version="1.0" encoding="utf-8"?>
<!-- Generator: Adobe Illustrator 16.0.4, SVG Export Plug-In . SVG Version: 6.00 Build 0)  -->
<!DOCTYPE svg PUBLIC "-//W3C//DTD SVG 1.1//EN" "http://www.w3.org/Graphics/SVG/1.1/DTD/svg11.dtd">
<svg version="1.1" id="Layer_1" xmlns="http://www.w3.org/2000/svg" xmlns:xlink="http://www.w3.org/1999/xlink" x="0px" y="0px"
	 width="25px" height="187.328px" viewBox="0 0 25 187.328" enable-background="new 0 0 25 187.328" xml:space="preserve">
<g>
	<path fill="#FFFFFF" d="M19.004,11.029l2.258-2.299v9.626c0,0.474-0.093,0.914-0.273,1.324c-0.182,0.408-0.422,0.766-0.73,1.072
		c-0.307,0.307-0.668,0.55-1.082,0.726c-0.413,0.175-0.849,0.264-1.314,0.264H4.266c-0.474,0-0.916-0.089-1.324-0.264
		c-0.409-0.176-0.766-0.419-1.072-0.726c-0.307-0.307-0.549-0.664-0.724-1.072c-0.177-0.41-0.265-0.851-0.265-1.324V4.705
		c0-0.465,0.088-0.902,0.265-1.311C1.321,2.985,1.562,2.629,1.87,2.322c0.307-0.307,0.663-0.549,1.072-0.725
		c0.408-0.177,0.85-0.265,1.324-0.265h13.596c0.484,0,0.935,0.093,1.357,0.278c0.421,0.186,0.784,0.441,1.082,0.767l-1.574,1.616
		c-0.225-0.279-0.512-0.418-0.865-0.418H4.266c-0.325,0-0.599,0.111-0.818,0.334C3.23,4.133,3.123,4.398,3.123,4.705v13.651
		c0,0.325,0.107,0.597,0.325,0.815c0.219,0.219,0.493,0.325,0.818,0.325h13.596c0.326,0,0.596-0.106,0.814-0.325
		c0.218-0.219,0.328-0.49,0.328-0.815V11.029z M19.59,4.453c0.167,0.558,0.455,1.033,0.867,1.428
		c0.414,0.396,0.902,0.667,1.459,0.816l-9.543,9.736l-3.092,0.881l0.794-3.137L19.59,4.453z M22.738,5.68
		c-0.297,0-0.58-0.059-0.847-0.175c-0.263-0.116-0.497-0.274-0.694-0.474c-0.2-0.199-0.359-0.434-0.474-0.703
		c-0.117-0.27-0.172-0.558-0.172-0.864l1.114-1.17c0.084-0.073,0.185-0.116,0.311-0.125c0.125-0.009,0.265,0.009,0.418,0.056
		c0.152,0.047,0.316,0.123,0.487,0.23c0.173,0.106,0.339,0.234,0.499,0.383l0.041,0.055c0.147,0.149,0.277,0.305,0.389,0.468
		s0.191,0.319,0.242,0.474c0.051,0.153,0.073,0.295,0.064,0.424c-0.01,0.131-0.055,0.232-0.14,0.307L22.905,5.68H22.738z"/>
</g>
<g>
	<path fill="#FFFFFF" d="M21.385,166.706c-0.136,0.439-0.321,0.858-0.551,1.255c-0.229,0.398-0.531,0.773-0.906,1.123
		c-0.377,0.349-0.828,0.671-1.357,0.958c-0.529,0.286-1.147,0.528-1.86,0.729c-0.05,0.021-0.12,0.041-0.208,0.058
		c-0.087,0.017-0.194-0.006-0.319-0.071c-0.312-0.156-0.747-0.395-1.304-0.717c-0.559-0.322-1.203-0.766-1.935-1.33
		c-0.728-0.565-1.525-1.271-2.388-2.12c-0.863-0.849-1.756-1.878-2.681-3.086c-0.616-0.808-1.149-1.588-1.598-2.344
		c-0.447-0.756-0.828-1.464-1.145-2.126c-0.317-0.661-0.575-1.268-0.771-1.822c-0.198-0.557-0.349-1.032-0.457-1.433
		c-0.109-0.4-0.186-0.716-0.231-0.941c-0.047-0.226-0.069-0.347-0.066-0.366c0.002-0.019-0.006-0.062-0.021-0.131
		c-0.014-0.068,0.012-0.151,0.071-0.248c0.469-0.795,0.947-1.418,1.441-1.871c0.494-0.453,0.959-0.801,1.397-1.037
		c0.436-0.238,0.827-0.385,1.17-0.449c0.342-0.065,0.595-0.107,0.759-0.124c0.165-0.024,0.303-0.029,0.417-0.019
		c0.113,0.01,0.2,0.026,0.27,0.05c0.067,0.022,0.117,0.044,0.147,0.067c0.031,0.023,0.052,0.039,0.06,0.051
		c0.329,0.615,0.64,1.209,0.935,1.783c0.12,0.244,0.243,0.498,0.369,0.763c0.126,0.265,0.244,0.523,0.359,0.778
		c0.113,0.252,0.219,0.5,0.31,0.74c0.093,0.24,0.168,0.457,0.229,0.645c0.035,0.091,0.037,0.158,0.006,0.201
		c-0.03,0.044-0.076,0.101-0.142,0.168c-0.235,0.264-0.494,0.486-0.771,0.669c-0.276,0.182-0.539,0.333-0.794,0.446
		c-0.252,0.114-0.469,0.195-0.642,0.248c-0.174,0.053-0.273,0.082-0.303,0.088c-0.05,0.013-0.086,0.041-0.111,0.086
		c-0.025,0.044-0.026,0.096-0.006,0.154c0.011,0.061,0.063,0.205,0.16,0.438s0.236,0.522,0.413,0.869
		c0.177,0.349,0.397,0.74,0.654,1.174c0.256,0.434,0.549,0.884,0.877,1.346c0.321,0.462,0.676,0.901,1.073,1.316
		c0.396,0.415,0.777,0.784,1.138,1.104c0.361,0.321,0.68,0.582,0.947,0.79c0.269,0.207,0.428,0.333,0.48,0.378
		c0.113,0.071,0.2,0.093,0.261,0.063c0.062-0.03,0.105-0.072,0.132-0.125c0.188-0.338,0.394-0.624,0.615-0.863
		c0.223-0.236,0.43-0.432,0.623-0.593c0.191-0.159,0.355-0.281,0.495-0.361c0.14-0.082,0.229-0.133,0.259-0.148
		c0.133-0.076,0.267-0.078,0.398-0.003c0.398,0.244,0.785,0.511,1.172,0.796c0.386,0.284,0.754,0.572,1.096,0.861
		c0.342,0.287,0.662,0.568,0.959,0.842c0.297,0.272,0.556,0.521,0.771,0.751c0.025,0.031,0.059,0.098,0.104,0.199
		C21.43,166.465,21.429,166.579,21.385,166.706z"/>
</g>
<g>
	<path fill="#FFFFFF" d="M5.442,115.392v2.363H4.121c-0.489,0-0.949-0.092-1.386-0.277c-0.436-0.188-0.817-0.443-1.146-0.766
		c-0.327-0.324-0.587-0.705-0.778-1.141c-0.19-0.436-0.288-0.895-0.288-1.387v-9.604c0-0.498,0.098-0.969,0.288-1.404
		c0.191-0.436,0.451-0.812,0.778-1.137c0.328-0.322,0.71-0.576,1.146-0.764c0.437-0.186,0.896-0.279,1.386-0.279h10.678
		c0.498,0,0.971,0.094,1.406,0.279c0.436,0.188,0.811,0.441,1.135,0.764c0.324,0.324,0.578,0.701,0.764,1.137s0.279,0.9,0.279,1.391
		h-2.395c0-0.334-0.111-0.617-0.342-0.848c-0.232-0.229-0.516-0.344-0.848-0.344H4.121c-0.332,0-0.616,0.115-0.856,0.344
		c-0.24,0.23-0.362,0.52-0.362,0.861v9.604c0,0.168,0.034,0.32,0.098,0.461c0.064,0.145,0.151,0.27,0.265,0.383
		s0.24,0.201,0.387,0.264s0.304,0.1,0.47,0.1H5.442z M24.477,118.944c0,0.5-0.094,0.965-0.279,1.4s-0.439,0.818-0.762,1.146
		c-0.322,0.326-0.701,0.586-1.133,0.773c-0.43,0.186-0.889,0.279-1.379,0.279H10.217c-0.489,0-0.95-0.094-1.386-0.279
		c-0.436-0.188-0.817-0.447-1.146-0.773c-0.327-0.328-0.587-0.711-0.777-1.146c-0.191-0.436-0.289-0.9-0.289-1.4v-9.591
		c0-0.498,0.098-0.969,0.289-1.404c0.19-0.436,0.45-0.814,0.777-1.137c0.329-0.322,0.711-0.582,1.146-0.773
		c0.436-0.189,0.896-0.283,1.386-0.283h10.707c0.49,0,0.949,0.094,1.379,0.283c0.432,0.191,0.811,0.451,1.133,0.773
		s0.576,0.701,0.762,1.137s0.279,0.906,0.279,1.404V118.944z M22.1,109.354c0-0.166-0.031-0.322-0.094-0.469
		c-0.062-0.148-0.152-0.275-0.26-0.383s-0.23-0.197-0.371-0.26c-0.143-0.064-0.293-0.094-0.451-0.094H10.217
		c-0.333,0-0.612,0.113-0.843,0.344c-0.229,0.232-0.348,0.52-0.348,0.861v9.591c0,0.334,0.118,0.617,0.348,0.857
		c0.23,0.24,0.51,0.361,0.843,0.361h10.707c0.158,0,0.309-0.033,0.451-0.098c0.141-0.062,0.264-0.15,0.371-0.264
		s0.197-0.24,0.26-0.387s0.094-0.305,0.094-0.471V109.354z"/>
</g>
<path fill="#FFFFFF" d="M18.948,65.923L18.948,65.923c-0.063-0.009-0.124-0.012-0.187-0.017l-5.365-7.178
	c-0.375-0.502-0.995-0.714-1.576-0.604l1.394-2.729c0.229-0.449,0.167-1.169-0.136-1.572l-1.753-2.348
	c-0.303-0.404-0.976-0.668-1.471-0.575l-1.29,0.242c-0.211,0.04-0.355,0.136-0.409,0.273c-0.053,0.136-0.013,0.306,0.117,0.477
	l1.13,1.507c0.398,0.535,0.286,1.295-0.247,1.694l-1.619,1.211c-0.257,0.19-0.576,0.272-0.896,0.226
	c-0.322-0.047-0.605-0.215-0.799-0.475l-1.125-1.504c-0.129-0.174-0.279-0.26-0.426-0.247c-0.145,0.013-0.277,0.124-0.375,0.315
	l-0.598,1.168c-0.229,0.451-0.167,1.172,0.136,1.574l1.755,2.348c0.302,0.403,0.974,0.666,1.467,0.573l3.013-0.565
	c-0.269,0.525-0.242,1.182,0.134,1.684l5.364,7.176c-0.012,0.062-0.026,0.121-0.035,0.184c-0.265,1.831,1.006,3.531,2.838,3.796
	s3.533-1.007,3.799-2.838C22.051,67.888,20.78,66.188,18.948,65.923z M18.219,70.979c-0.961-0.139-1.627-1.031-1.488-1.989
	c0.066-0.466,0.311-0.876,0.688-1.157c0.375-0.281,0.837-0.399,1.303-0.332c0.957,0.139,1.625,1.032,1.486,1.991
	C20.068,70.45,19.176,71.118,18.219,70.979z"/>
</svg>
