<?xml version="1.0" encoding="utf-8"?>
<!-- Generator: Adobe Illustrator 16.0.4, SVG Export Plug-In . SVG Version: 6.00 Build 0)  -->
<!DOCTYPE svg PUBLIC "-//W3C//DTD SVG 1.1//EN" "http://www.w3.org/Graphics/SVG/1.1/DTD/svg11.dtd">
<svg version="1.1" id="Layer_1" xmlns="http://www.w3.org/2000/svg" xmlns:xlink="http://www.w3.org/1999/xlink" x="0px" y="0px"
	 width="73px" height="140px" viewBox="0 0 73 140" enable-background="new 0 0 73 140" xml:space="preserve">
<g>
	<g>
		<path fill="#231F20" d="M36.501,2.792c-17.996,0-32.619,14.624-32.619,32.618c0,17.996,14.623,32.56,32.619,32.56
			s32.617-14.563,32.617-32.56C69.118,17.416,54.497,2.792,36.501,2.792L36.501,2.792z"/>
		<g>
			<path fill="#FFFFFF" d="M49.224,44.042v-9.215c0-0.156-0.039-0.438-0.117-0.838c-0.078-0.402-0.211-0.885-0.398-1.455
				c-0.191-0.561-0.439-1.176-0.752-1.838s-0.701-1.334-1.168-2.008c-0.469-0.674-1.025-1.328-1.664-1.959
				c-0.648-0.627-1.389-1.186-2.223-1.676c-0.84-0.484-1.787-0.873-2.844-1.17c-1.061-0.287-2.244-0.436-3.557-0.436
				c-1.314,0-2.498,0.148-3.559,0.436c-1.057,0.297-2.002,0.686-2.844,1.17c-0.834,0.49-1.574,1.049-2.223,1.676
				c-0.639,0.631-1.195,1.285-1.662,1.959c-0.469,0.674-0.857,1.346-1.17,2.008s-0.561,1.277-0.752,1.838
				c-0.188,0.57-0.32,1.053-0.398,1.455c-0.076,0.4-0.115,0.682-0.115,0.838v9.215H21.05v-9.215c0-0.262,0.047-0.664,0.137-1.209
				s0.25-1.172,0.479-1.879c0.227-0.709,0.527-1.473,0.904-2.291c0.379-0.818,0.85-1.633,1.41-2.447
				c0.57-0.811,1.236-1.598,2.012-2.354c0.771-0.764,1.672-1.43,2.695-2.01c1.025-0.576,2.188-1.037,3.477-1.379
				c1.293-0.348,2.74-0.52,4.338-0.52s3.043,0.172,4.336,0.52c1.289,0.342,2.451,0.803,3.477,1.379
				c1.023,0.58,1.924,1.246,2.695,2.01c0.775,0.756,1.441,1.543,2.012,2.354c0.561,0.814,1.031,1.629,1.41,2.447
				s0.678,1.582,0.904,2.291c0.23,0.707,0.389,1.334,0.479,1.879s0.137,0.947,0.137,1.209v9.215H49.224z M30.46,49.224
				c-0.168,0.246-0.357,0.43-0.564,0.547c-0.234,0.143-0.506,0.225-0.818,0.252h-3.508V36.015c0.586-0.012,1.123-0.02,1.617-0.02
				c0.418,0,0.807,0,1.182,0c0.365,0,0.604,0.008,0.709,0.02c0.416,0.027,0.732,0.129,0.955,0.312
				c0.221,0.182,0.381,0.377,0.486,0.584c0.129,0.234,0.195,0.506,0.195,0.818v10.463C30.714,48.632,30.628,48.979,30.46,49.224z
				 M43.923,50.022c-0.299-0.027-0.564-0.109-0.799-0.252c-0.207-0.117-0.393-0.301-0.557-0.547
				c-0.16-0.244-0.242-0.592-0.242-1.031V37.729c0.012-0.312,0.078-0.584,0.195-0.818c0.105-0.207,0.266-0.402,0.475-0.584
				c0.219-0.184,0.527-0.285,0.928-0.312c0.105-0.012,0.348-0.02,0.732-0.02c0.383,0,0.779,0,1.197,0
				c0.494,0,1.031,0.008,1.617,0.02v14.008H43.923z"/>
		</g>
	</g>
	<polyline fill="none" stroke="#231F20" stroke-width="0.5" points="28.216,137.208 13.882,122.874 13.882,58.75 	"/>
</g>
</svg>
