<?xml version="1.0" encoding="utf-8"?>
<!-- Generator: Adobe Illustrator 16.0.4, SVG Export Plug-In . SVG Version: 6.00 Build 0)  -->
<!DOCTYPE svg PUBLIC "-//W3C//DTD SVG 1.1//EN" "http://www.w3.org/Graphics/SVG/1.1/DTD/svg11.dtd">
<svg version="1.1" id="Layer_1" xmlns="http://www.w3.org/2000/svg" xmlns:xlink="http://www.w3.org/1999/xlink" x="0px" y="0px"
	 width="660px" height="347px" viewBox="0 0 660 347" enable-background="new 0 0 660 347" xml:space="preserve">
<circle fill="#231F20" cx="518.852" cy="44.5" r="3.75"/>
<circle fill="#231F20" cx="391.945" cy="104.5" r="3.75"/>
<circle fill="#231F20" cx="99.665" cy="82.5" r="3.75"/>
<circle fill="#231F20" cx="260.297" cy="120.5" r="3.75"/>
<polyline fill="none" stroke="#231F20" stroke-width="20" stroke-linecap="square" points="17.546,282.831 100.042,110.5 
	184.038,242.334 258.5,147.5 333.5,265.5 391.5,137.5 448.024,260.332 520.5,75.5 643.015,282.831 "/>
<text transform="matrix(1 0 0 1 327.4478 11.1797)" fill="#231F20" font-family="'MyriadPro-Regular'" font-size="10">H</text>
<text transform="matrix(1 0 0 1 328.2021 343.7988)" fill="#231F20" font-family="'MyriadPro-Regular'" font-size="10">L</text>
<g>
	<circle fill="#FFFFFF" stroke="#231F20" stroke-width="0.5" cx="330.457" cy="325.348" r="3.75"/>
	<circle fill="none" stroke="#231F20" stroke-width="0.72" cx="330.457" cy="325.348" r="5.4"/>
</g>
<g>
	<circle fill="#FFFFFF" stroke="#231F20" stroke-width="0.5" cx="330.457" cy="21.16" r="3.75"/>
	<circle fill="none" stroke="#231F20" stroke-width="0.72" cx="330.457" cy="21.16" r="5.4"/>
</g>
<line fill="none" stroke="#231F20" stroke-width="0.5" x1="330.457" y1="30.11" x2="330.457" y2="315.892"/>
</svg>
