<?xml version="1.0" encoding="utf-8"?>
<!-- Generator: Adobe Illustrator 16.0.4, SVG Export Plug-In . SVG Version: 6.00 Build 0)  -->
<!DOCTYPE svg PUBLIC "-//W3C//DTD SVG 1.1//EN" "http://www.w3.org/Graphics/SVG/1.1/DTD/svg11.dtd">
<svg version="1.1" id="Layer_1" xmlns="http://www.w3.org/2000/svg" xmlns:xlink="http://www.w3.org/1999/xlink" x="0px" y="0px"
	 width="65px" height="65px" viewBox="0 0 65 65" enable-background="new 0 0 65 65" xml:space="preserve">
<g>
	<path fill="#231F20" d="M56.631,0.325H8.369c-4.426,0-8.044,3.619-8.044,8.043v48.264c0,4.425,3.618,8.043,8.044,8.043h48.262
		c4.428,0,8.044-3.618,8.044-8.043V8.368C64.675,3.944,61.059,0.325,56.631,0.325"/>
	<path fill="#FFFFFF" d="M53.336,20.837c-0.404,1.125-5.361,5.363-5.361,5.363c0.469,5.545-1.68,8.655-2.439,10.354
		c-0.758,1.691-4.494,9.168-15.064,12.146c-10.57,2.973-18.801-3.037-18.801-3.037c7.415,0.93,12.085-3.445,12.085-3.445
		c-6.302-0.586-7.529-5.783-7.529-5.783c2.685,0.42,3.387-0.291,3.387-0.291c-6.831-2.041-6.366-8.178-6.366-8.178
		c2.803,1.349,3.56,0.822,3.56,0.822c-6.126-4.965-2.393-11.037-2.393-11.037c8.001,9.342,17.105,8.762,17.105,8.762
		c-0.23-2.031-0.23-7.436,5.14-9.616c5.396-2.192,8.928,1.155,8.928,1.155c2.164-0.135,7.752-2.578,7.752-2.578
		c-1.174,3.281-5.935,5.992-5.935,5.992C49.329,21.337,53.336,20.837,53.336,20.837"/>
</g>
<g>
	<path fill="#231F20" d="M56.832,0.104H8.57c-4.426,0-8.044,3.619-8.044,8.043v48.264c0,4.424,3.618,8.043,8.044,8.043h48.262
		c4.428,0,8.044-3.619,8.044-8.043V8.147C64.876,3.724,61.26,0.104,56.832,0.104"/>
</g>
<g>
	<path fill="#FFFFFF" d="M35.26,41.145c-2.402-0.18-3.403-1.36-5.285-2.502c-1.021,5.404-2.282,10.609-6.025,13.312
		c-1.161-8.188,1.701-14.334,3.022-20.861c-2.262-3.803,0.261-11.436,5.025-9.549c5.846,2.303-5.085,14.113,2.262,15.576
		c7.648,1.541,10.771-13.273,6.026-18.104c-6.867-6.963-19.96-0.156-18.358,9.814c0.4,2.422,2.923,3.164,1.021,6.526
		c-4.404-0.967-5.706-4.425-5.546-9.055c0.28-7.543,6.787-12.832,13.333-13.568c8.269-0.922,16.017,3.023,17.098,10.805
		C49.034,32.316,44.109,41.846,35.26,41.145L35.26,41.145z"/>
</g>
</svg>
