<?xml version="1.0" encoding="utf-8"?>
<!-- Generator: Adobe Illustrator 16.0.4, SVG Export Plug-In . SVG Version: 6.00 Build 0)  -->
<!DOCTYPE svg PUBLIC "-//W3C//DTD SVG 1.1//EN" "http://www.w3.org/Graphics/SVG/1.1/DTD/svg11.dtd">
<svg version="1.1" id="Layer_1" xmlns="http://www.w3.org/2000/svg" xmlns:xlink="http://www.w3.org/1999/xlink" x="0px" y="0px"
	 width="73px" height="140px" viewBox="0 0 73 140" enable-background="new 0 0 73 140" xml:space="preserve">
<g>
	<g>
		<path fill="#231F20" d="M37.387,2.792c-17.996,0-32.619,14.624-32.619,32.618c0,17.996,14.623,32.56,32.619,32.56
			s32.617-14.563,32.617-32.56C70.004,17.416,55.383,2.792,37.387,2.792L37.387,2.792z"/>
		<g>
			<path fill="#FFFFFF" d="M22.863,43.352h-1.865V27.268h2.125l3.307,4.865h8.527l-4.676-14.006h3.92l10.205,14.006h9.613
				c0.457,0,0.906,0.086,1.346,0.26s0.84,0.412,1.205,0.723c0.363,0.303,0.65,0.662,0.873,1.059c0.223,0.406,0.332,0.83,0.332,1.289
				s-0.109,0.883-0.332,1.291c-0.223,0.395-0.51,0.752-0.873,1.047c-0.365,0.299-0.766,0.535-1.205,0.709
				c-0.439,0.176-0.889,0.26-1.346,0.26h-9.236l-10.18,13.865H30.73l4.629-13.865H25.91L22.863,43.352z"/>
		</g>
	</g>
	<polyline fill="none" stroke="#231F20" stroke-width="0.5" points="29.102,137.208 14.768,122.874 14.768,58.75 	"/>
</g>
</svg>
