<?xml version="1.0" encoding="utf-8"?>
<!-- Generator: Adobe Illustrator 16.0.4, SVG Export Plug-In . SVG Version: 6.00 Build 0)  -->
<!DOCTYPE svg PUBLIC "-//W3C//DTD SVG 1.1//EN" "http://www.w3.org/Graphics/SVG/1.1/DTD/svg11.dtd">
<svg version="1.1" id="Layer_1" xmlns="http://www.w3.org/2000/svg" xmlns:xlink="http://www.w3.org/1999/xlink" x="0px" y="0px"
	 width="65px" height="65px" viewBox="0 0 65 65" enable-background="new 0 0 65 65" xml:space="preserve">
<g>
	<path fill="#231F20" d="M56.631,0.325H8.369c-4.426,0-8.044,3.619-8.044,8.043v48.264c0,4.424,3.618,8.043,8.044,8.043h48.262
		c4.428,0,8.044-3.619,8.044-8.043V8.368C64.675,3.944,61.059,0.325,56.631,0.325"/>
	<path fill="#FFFFFF" d="M53.336,20.837c-0.404,1.125-5.362,5.363-5.362,5.363c0.47,5.545-1.679,8.655-2.44,10.354
		c-0.757,1.693-4.494,9.168-15.064,12.148c-10.57,2.973-18.801-3.037-18.801-3.037c7.415,0.93,12.085-3.445,12.085-3.445
		c-6.302-0.586-7.529-5.785-7.529-5.785c2.685,0.421,3.387-0.291,3.387-0.291c-6.831-2.041-6.366-8.176-6.366-8.176
		c2.803,1.349,3.56,0.822,3.56,0.822c-6.126-4.965-2.393-11.037-2.393-11.037c8.001,9.342,17.105,8.762,17.105,8.762
		c-0.23-2.031-0.23-7.436,5.14-9.616c5.396-2.192,8.928,1.155,8.928,1.155c2.164-0.135,7.752-2.578,7.752-2.578
		c-1.174,3.281-5.934,5.992-5.934,5.992C49.329,21.337,53.336,20.837,53.336,20.837"/>
</g>
</svg>
